<?xml version="1.0" standalone="no"?>
<!DOCTYPE svg PUBLIC "-//W3C//DTD SVG 20010904//EN"
 "http://www.w3.org/TR/2001/REC-SVG-20010904/DTD/svg10.dtd">
<svg version="1.0" xmlns="http://www.w3.org/2000/svg"
 width="250.000000pt" height="164.000000pt" viewBox="0 0 250.000000 164.000000"
 preserveAspectRatio="xMidYMid meet">
<metadata>
Created by potrace 1.15, written by Peter Selinger 2001-2017
</metadata>
<g transform="translate(0.000000,164.000000) scale(0.100000,-0.100000)"
fill="#ffffff" stroke="none">
<path d="M2332 1629 c-13 -5 -20 -14 -16 -20 3 -6 3 -14 -2 -18 -5 -3 -19 -24
-30 -46 l-22 -40 24 -28 c34 -40 31 -73 -12 -110 -20 -18 -43 -45 -51 -62 -9
-16 -28 -46 -43 -65 -14 -19 -50 -69 -80 -110 -48 -68 -52 -77 -42 -103 9 -22
7 -36 -8 -70 -11 -23 -20 -56 -20 -73 0 -27 6 -34 40 -49 22 -10 40 -24 40
-30 0 -7 -9 -41 -19 -76 -51 -168 -52 -176 -41 -371 6 -101 15 -207 19 -235 7
-47 6 -54 -13 -66 -18 -13 -19 -16 -6 -32 13 -15 27 -17 110 -12 157 8 157 8
129 194 -12 76 -23 200 -25 276 l-4 138 64 92 c105 152 125 204 131 344 3 55
12 115 25 152 25 75 27 167 3 193 -14 16 -15 25 -5 69 19 80 15 104 -19 138
-32 33 -78 40 -127 20z"/>
<path d="M2054 1585 c-3 -8 -4 -20 -1 -27 3 -7 6 -3 6 10 1 25 1 25 37 12 l27
-11 -28 -29 c-33 -35 -42 -37 -49 -12 -3 11 -4 10 -3 -5 1 -16 -24 -49 -88
-115 l-91 -93 -93 -27 -94 -26 -31 21 c-56 40 -60 46 -44 64 8 10 13 41 12 85
0 77 -16 103 -70 114 -24 4 -37 0 -59 -19 l-28 -24 13 -62 c11 -53 11 -64 -1
-77 -11 -11 -22 -12 -49 -4 -52 15 -55 14 -112 -40 -29 -27 -67 -55 -86 -61
-18 -6 -31 -13 -28 -16 3 -3 -2 -19 -12 -35 -22 -37 -9 -58 46 -78 30 -10 45
-23 54 -45 6 -16 21 -46 33 -65 24 -39 54 -153 57 -215 1 -22 -4 -101 -12
-175 -12 -122 -11 -150 4 -278 10 -79 15 -146 12 -149 -3 -4 -17 4 -30 16 -23
22 -23 25 -10 57 11 26 13 61 8 151 -7 124 -19 161 -68 220 -24 29 -25 31 -8
46 9 8 35 23 57 32 22 10 35 19 28 22 -7 2 -35 -7 -62 -20 l-51 -24 0 23 c0
20 5 24 29 24 16 0 43 3 60 6 26 6 31 11 31 36 0 48 -33 158 -47 158 -7 0 -13
10 -13 22 0 13 -10 46 -22 75 -16 39 -28 53 -47 58 -41 10 -71 34 -71 56 0 20
-5 21 -79 18 l-78 -4 -46 42 c-46 40 -47 41 -32 70 21 40 18 140 -6 164 -40
40 -112 36 -131 -6 -8 -17 -8 -42 -1 -87 7 -39 7 -65 1 -69 -5 -3 -27 -1 -49
5 -29 8 -45 7 -59 -2 -16 -9 -29 -7 -77 17 -80 40 -167 61 -281 68 -106 6
-152 -5 -152 -35 0 -37 61 -76 169 -108 l64 -19 -7 -109 c-4 -69 -11 -113 -19
-118 -9 -6 -9 -10 2 -17 25 -16 0 -31 -54 -31 -88 0 -85 5 -85 -141 0 -108 -2
-129 -15 -129 -8 0 -15 -9 -15 -20 0 -14 5 -18 17 -13 15 6 16 -2 10 -87 -4
-51 -7 -123 -7 -159 l0 -66 -106 -55 c-58 -30 -108 -58 -110 -62 -11 -17 20
-18 39 -1 32 29 137 86 137 75 0 -5 -7 -15 -15 -22 -8 -7 -15 -19 -15 -26 0
-8 7 -14 15 -14 9 0 15 9 15 23 0 13 9 32 19 41 18 17 22 15 89 -33 38 -28 78
-51 87 -51 10 0 41 25 69 56 l51 57 30 -16 c56 -31 79 -54 80 -83 0 -15 6 -29
14 -32 10 -3 12 2 7 22 -7 30 0 33 25 10 16 -15 17 -20 5 -43 -20 -37 -40
-110 -33 -117 14 -14 27 10 27 49 0 52 23 87 56 87 16 0 24 6 25 18 0 15 2 14
10 -3 6 -11 24 -30 42 -42 18 -13 45 -34 60 -49 29 -27 69 -40 166 -53 50 -7
59 -5 130 31 48 25 92 56 122 88 l46 50 22 -24 c19 -20 20 -27 10 -49 -15 -34
-5 -57 25 -57 19 0 24 -4 19 -16 -4 -12 -2 -15 8 -12 8 3 14 11 14 19 0 8 17
31 38 51 l37 36 -6 110 c-8 133 -3 162 31 162 19 0 30 -10 49 -47 40 -77 32
-17 -10 70 l-36 76 16 93 c9 50 20 96 25 101 22 22 36 -101 36 -325 0 -124 3
-230 7 -234 5 -4 -6 -16 -22 -26 -40 -24 -47 -45 -24 -69 37 -37 199 -48 257
-17 9 5 17 20 17 33 0 28 -28 50 -78 60 -39 8 -48 35 -34 102 6 27 14 75 17
108 3 33 26 204 51 379 l45 319 66 108 c66 109 66 109 107 111 69 3 75 3 82
11 4 4 18 7 30 7 31 0 37 14 16 33 -12 11 -35 14 -84 12 -36 -2 -70 -5 -75 -8
-5 -3 -15 -2 -23 3 -10 6 13 35 89 113 101 103 103 105 134 95 48 -15 62 -14
62 1 0 10 -21 19 -60 27 -81 17 -114 17 -121 -1z m-228 -367 c4 -7 3 -8 -5 -4
-8 6 -10 1 -6 -16 3 -13 -3 -82 -14 -153 -27 -172 -66 -446 -96 -679 -14 -104
-28 -192 -31 -195 -7 -7 -5 15 36 319 28 204 30 234 20 320 -12 103 -43 211
-65 230 -13 11 -12 17 6 42 12 16 24 26 28 21 10 -13 69 -53 80 -53 9 0 14 18
27 100 6 41 5 43 -10 31 -13 -11 -19 -12 -29 -2 -9 10 -7 17 12 32 27 22 37
24 47 7z m-1323 -23 l48 -6 -26 -31 c-32 -38 -29 -58 10 -78 17 -8 31 -15 32
-15 1 0 5 -29 9 -64 l7 -64 -77 5 c-42 3 -79 7 -81 10 -12 11 -17 110 -10 182
6 65 9 76 23 72 10 -2 39 -7 65 -11z m-135 -754 c-3 -45 -4 -47 -60 -76 -31
-16 -59 -27 -61 -25 -2 3 -2 43 1 90 l4 86 60 -15 59 -14 -3 -46z m220 -54
c-3 -96 -4 -103 -20 -93 -10 6 -18 14 -18 18 0 5 -5 8 -11 8 -5 0 -37 18 -70
40 -55 38 -59 43 -59 80 l0 40 55 0 55 0 2 -42 1 -43 4 40 c5 41 16 55 46 55
16 0 18 -9 15 -103z"/>
</g>
</svg>
